<svg xmlns="http://www.w3.org/2000/svg" viewBox="0 0 512 512">
  <defs>
    <linearGradient id="grad1" x1="0%" y1="0%" x2="100%" y2="100%">
      <stop offset="0%" style="stop-color:#6366f1;stop-opacity:1" />
      <stop offset="100%" style="stop-color:#8b5cf6;stop-opacity:1" />
    </linearGradient>
  </defs>
  <rect x="0" y="0" width="512" height="512" rx="100" fill="url(#grad1)" />
  <path d="M368 128H144a16 16 0 0 0-16 16v224a16 16 0 0 0 16 16h224a16 16 0 0 0 16-16V144a16 16 0 0 0-16-16zm-56 192H200a8 8 0 0 1 0-16h112a8 8 0 0 1 0 16zm0-64H200a8 8 0 0 1 0-16h112a8 8 0 0 1 0 16zm0-64H200a8 8 0 0 1 0-16h112a8 8 0 0 1 0 16z" fill="#ffffff" />
  <circle cx="360" cy="120" r="40" fill="#fbbf24" stroke="#1f2937" stroke-width="8" />
  <path d="M360 145v10" stroke="#1f2937" stroke-width="6" stroke-linecap="round" />
</svg>
